<svg width="159" height="98" viewBox="0 0 159 98" fill="none" xmlns="http://www.w3.org/2000/svg">
<rect width="159" height="98" fill="#1E1E1E"/>
<rect width="159" height="98" fill="black"/>
<path d="M111 82C118.5 78.5 126 76.5 137 78.6775M137 78.6775C141.899 78.4328 146.509 78.4034 150.056 78.4886C150.339 78.4954 150.622 78.3727 150.815 78.1647C160.218 67.989 147.318 67.4677 149 64.5C157.5 49.5 139.722 52.5 140 50C140.688 43.8043 134.762 41.3604 130.121 40.3743C129.289 40.1974 128.915 38.9861 128.97 38.1366C129.248 33.8605 119.194 27.6343 111 27.5C80.5 27 66 29 60 30.5C55.294 31.6765 22.8087 31.0267 5.98874 31.0008C5.43646 30.9999 5 31.4477 5 32V70.0103C5 70.5585 5.46586 71.0048 6.0141 71.0102C53.5003 71.4805 53.5386 70.114 59 72.1C63.3734 73.6903 88.0323 87.1687 99.7867 93.3872C99.9307 93.4634 100.093 93.5 100.256 93.4998C127.988 93.4617 126.021 87.2137 133 86C142.2 84.4 139.5 80.4517 137 78.6775Z" stroke="#5A5A5A" stroke-width="6" stroke-linecap="round"/>
<rect x="31.5" y="34" width="24" height="27" rx="5" stroke="#FF9100" stroke-width="6"/>
<path d="M37 31H50.5M32.5 59C34.3541 62.2447 37.4974 65.82 37.9461 70.0016C38.005 70.5507 38.4477 71 39 71H49.5C50.0523 71 50.5005 70.551 50.5736 70.0036C51.0398 66.5113 53.5928 60.8143 54.5 59" stroke="#FF9100" stroke-width="6" stroke-linecap="round"/>
<path d="M78.5 31.5C80.5 26.5 81.5 15.9999 77 10.5C72.5 5.00002 59.3453 -1.0163 54.5 15.431" stroke="#FF9100" stroke-width="7" stroke-linecap="round"/>
<path d="M47.6223 13.2795C47.2781 11.7789 48.6873 10.4683 50.159 10.9205L60.1085 13.9771C61.5802 14.4293 62.0106 16.305 60.8831 17.3535L53.2612 24.4416C52.1338 25.4901 50.2942 24.9249 49.9499 23.4243L47.6223 13.2795Z" fill="#FF9100"/>
</svg>
