<?xml version="1.0" encoding="utf-8" standalone="no"?>
<svg viewBox="0 0 125 141" version="1.1" xmlns="http://www.w3.org/2000/svg" xmlns:xlink="http://www.w3.org/1999/xlink" stroke-linecap="round" stroke-linejoin="round" fill-rule="evenodd" xml:space="preserve" >
<g fill="none" stroke="rgb(0,0,0)" stroke-width="0.17625" >
<polygon points="6.04113,126.965 6.04151,127.04 6.04264,127.116 6.04453,127.191 6.04718,127.267 6.05058,127.342 6.05473,127.418 6.05964,127.493 6.06531,127.569 6.07172,127.644 6.07889,127.719 6.08682,127.794 6.09549,127.87 6.10491,127.945 6.11509,128.019 6.12601,128.094 6.13768,128.169 6.1501,128.243 6.16326,128.318 6.17716,128.392 6.19181,128.466 6.2072,128.54 6.22332,128.614 6.24019,128.688 6.25779,128.761 6.27612,128.835 6.29519,128.908 6.31499,128.981 6.33551,129.054 6.35677,129.126 6.37874,129.198 6.40144,129.271 6.42486,129.342 6.449,129.414 6.47385,129.485 6.49942,129.557 6.52569,129.627 6.55267,129.698 6.58036,129.768 6.60875,129.839 6.63783,129.908 6.66762,129.978 6.6981,130.047 6.72926,130.116 6.76112,130.184 6.79366,130.253 6.82688,130.32 6.86077,130.388 6.89534,130.455 6.93058,130.522 6.96649,130.589 7.00306,130.655 7.04029,130.721 7.07818,130.786 7.11672,130.851 7.15591,130.916 7.19574,130.98 7.23621,131.044 7.27732,131.107 7.31906,131.17 7.36143,131.233 7.40442,131.295 7.44803,131.357 7.49226,131.418 7.5371,131.479 7.58254,131.539 7.62859,131.599 7.67523,131.659 7.72247,131.718 7.77029,131.776 7.8187,131.834 7.86769,131.892 7.91724,131.949 7.96737,132.006 8.01806,132.062 8.06931,132.117 8.12111,132.172 8.17346,132.227 8.22635,132.281 8.27978,132.334 8.33374,132.387 8.38823,132.44 8.44324,132.491 8.49876,132.543 8.5548,132.593 8.61134,132.644 8.66837,132.693 8.72591,132.742 8.78392,132.791 8.84243,132.839 8.9014,132.886 8.96085,132.933 9.02076,132.979 9.08113,133.024 9.14195,133.069 9.20321,133.113 9.26492,133.157 9.32706,133.2 9.38962,133.242 9.45261,133.284 9.51601,133.325 9.57982,133.366 9.64403,133.406 9.70864,133.445 9.77364,133.484 9.83902,133.522 9.90477,133.559 9.9709,133.595 10.0374,133.631 10.1042,133.667 10.1714,133.701 10.239,133.735 10.3068,133.769 10.375,133.801 10.4436,133.833 10.5124,133.864 10.5816,133.895 10.651,133.925 10.7208,133.954 10.7908,133.982 10.8611,134.01 10.9317,134.037 11.0025,134.063 11.0737,134.089 11.145,134.114 11.2166,134.138 11.2885,134.162 11.3606,134.184 11.4329,134.206 11.5054,134.228 11.5781,134.248 11.6511,134.268 11.7242,134.287 11.7975,134.306 11.871,134.323 11.9447,134.34 12.0185,134.356 12.0925,134.372 12.1667,134.387 12.241,134.4 12.3154,134.414 12.3899,134.426 12.4646,134.438 12.5394,134.449 12.6143,134.459 12.6893,134.469 12.7644,134.477 12.8396,134.485 12.9148,134.493 12.9901,134.499 13.0655,134.505 13.1409,134.51 13.2164,134.514 13.2919,134.517 13.3674,134.52 13.443,134.522 13.5186,134.523 13.5942,134.524 13.6698,134.523 13.7453,134.522 13.8209,134.52 13.8965,134.518 13.972,134.515 14.0474,134.51 14.1229,134.506 14.1983,134.5 14.2736,134.494 14.3488,134.487 14.424,134.479 14.4991,134.47 14.5741,134.461 14.649,134.451 14.7238,134.44 14.7985,134.428 14.8731,134.416 14.9476,134.403 15.0219,134.389 15.096,134.374 15.1701,134.359 15.2439,134.343 15.3176,134.326 15.3911,134.308 15.4645,134.29 15.5377,134.271 15.6106,134.251 15.6834,134.231 15.7559,134.21 15.8283,134.188 15.9004,134.165 15.9723,134.142 16.0439,134.118 16.1154,134.093 16.1865,134.067 16.2574,134.041 16.328,134.014 16.3984,133.987 16.4685,133.958 16.5383,133.929 16.6078,133.9 16.677,133.869 16.7459,133.838 16.8144,133.806 16.8827,133.774 16.9506,133.741 17.0182,133.707 17.0855,133.672 17.1524,133.637 17.2189,133.601 17.2851,133.565 17.3509,133.528 17.3797,133.511 115.179,77.0463 115.245,77.0082 115.31,76.9694 115.374,76.93 115.438,76.8899 115.502,76.8492 115.565,76.8079 115.628,76.7659 115.69,76.7233 115.752,76.6801 115.814,76.6363 115.875,76.5918 115.936,76.5468 115.996,76.5011 116.056,76.4549 116.115,76.408 116.174,76.3605 116.232,76.3125 116.29,76.2639 116.348,76.2147 116.405,76.1649 116.461,76.1146 116.517,76.0637 116.572,76.0123 116.627,75.9603 116.681,75.9077 116.735,75.8546 116.789,75.801 116.841,75.7469 116.893,75.6922 116.945,75.637 116.996,75.5813 117.047,75.5251 117.097,75.4684 117.146,75.4111 117.195,75.3534 117.243,75.2952 117.291,75.2366 117.338,75.1774 117.384,75.1178 117.43,75.0577 117.476,74.9972 117.52,74.9362 117.564,74.8748 117.608,74.8129 117.651,74.7506 117.693,74.6879 117.734,74.6248 117.775,74.5612 117.816,74.4973 117.855,74.4329 117.894,74.3682 117.933,74.303 117.97,74.2375 118.007,74.1716 118.044,74.1054 118.079,74.0388 118.114,73.9718 118.149,73.9045 118.183,73.8368 118.216,73.7688 118.248,73.7005 118.28,73.6319 118.311,73.5629 118.341,73.4936 118.37,73.4241 118.399,73.3542 118.428,73.2841 118.455,73.2137 118.482,73.143 118.508,73.0721 118.533,73.0008 118.558,72.9294 118.582,72.8577 118.605,72.7857 118.628,72.7136 118.649,72.6412 118.67,72.5686 118.691,72.4958 118.71,72.4228 118.729,72.3496 118.747,72.2762 118.765,72.2026 118.781,72.1289 118.797,72.055 118.812,71.981 118.827,71.9068 118.841,71.8324 118.853,71.758 118.866,71.6834 118.877,71.6086 118.888,71.5338 118.898,71.4589 118.907,71.3839 118.916,71.3087 118.923,71.2335 118.93,71.1583 118.936,71.0829 118.942,71.0075 118.947,70.9321 118.95,70.8566 118.954,70.7811 118.956,70.7055 118.958,70.63 118.959,70.5544 118.959,70.4788 118.958,70.4032 118.957,70.3276 118.955,70.2521 118.952,70.1765 118.948,70.101 118.944,70.0256 118.939,69.9501 118.933,69.8748 118.926,69.7995 118.919,69.7243 118.911,69.6491 118.902,69.574 118.892,69.4991 118.882,69.4242 118.871,69.3494 118.859,69.2748 118.846,69.2002 118.833,69.1258 118.819,69.0516 118.804,68.9775 118.788,68.9035 118.772,68.8297 118.755,68.7561 118.737,68.6826 118.719,68.6093 118.699,68.5362 118.679,68.4633 118.659,68.3906 118.637,68.3182 118.615,68.2459 118.592,68.1739 118.568,68.1021 118.544,68.0305 118.519,67.9592 118.493,67.8881 118.467,67.8173 118.44,67.7468 118.412,67.6765 118.383,67.6065 118.354,67.5368 118.324,67.4675 118.293,67.3984 118.262,67.3296 118.23,67.2611 118.197,67.193 118.164,67.1252 118.13,67.0577 118.095,66.9906 118.059,66.9238 118.023,66.8574 117.987,66.7913 117.949,66.7257 117.911,66.6604 117.872,66.5954 117.833,66.5309 117.793,66.4668 117.752,66.403 117.711,66.3397 117.669,66.2768 117.627,66.2143 117.583,66.1523 117.54,66.0907 117.495,66.0295 117.45,65.9688 117.405,65.9085 117.358,65.8487 117.312,65.7893 117.264,65.7304 117.216,65.672 117.168,65.6141 117.119,65.5567 117.069,65.4997 117.019,65.4433 116.968,65.3874 116.916,65.332 116.864,65.277 116.812,65.2227 116.759,65.1688 116.705,65.1155 116.651,65.0627 116.596,65.0105 116.541,64.9588 116.486,64.9076 116.429,64.8571 116.373,64.807 116.316,64.7576 116.258,64.7087 116.2,64.6604 116.141,64.6127 116.082,64.5656 116.022,64.5191 115.962,64.4732 115.902,64.4278 115.841,64.3831 115.78,64.339 115.718,64.2955 115.655,64.2527 115.593,64.2104 115.53,64.1688 115.466,64.1278 115.402,64.0875 115.338,64.0478 115.273,64.0087 115.208,63.9703 115.179,63.9536 17.3797,7.48898 17.3141,7.45152 17.248,7.41471 17.1817,7.37856 17.1149,7.34308 17.0478,7.30827 16.9804,7.27413 16.9126,7.24066 16.8445,7.20788 16.776,7.17578 16.7073,7.14437 16.6382,7.11364 16.5689,7.08361 16.4992,7.05427 16.4292,7.02563 16.359,6.99769 16.2885,6.97045 16.2177,6.94392 16.1467,6.9181 16.0754,6.89299 16.0038,6.8686 15.932,6.84492 15.86,6.82196 15.7878,6.79973 15.7153,6.77821 15.6426,6.75742 15.5697,6.73736 15.4967,6.71803 15.4234,6.69943 15.35,6.68157 15.2763,6.66444 15.2025,6.64805 15.1286,6.63239 15.0545,6.61748 14.9802,6.60331 14.9058,6.58988 14.8313,6.57719 14.7567,6.56526 14.6819,6.55406 14.6071,6.54362 14.5321,6.53393 14.457,6.52498 14.3819,6.51679 14.3067,6.50935 14.2314,6.50266 14.156,6.49673 14.0806,6.49154 14.0051,6.48712 13.9296,6.48345 13.8541,6.48053 13.7786,6.47837 13.703,6.47696 13.6274,6.47631 13.5518,6.47642 13.4762,6.47728 13.4006,6.4789 13.3251,6.48127 13.2496,6.4844 13.1741,6.48828 13.0986,6.49292 13.0232,6.49831 12.9479,6.50446 12.8726,6.51136 12.7974,6.51901 12.7223,6.52741 12.6473,6.53657 12.5723,6.54647 12.4975,6.55713 12.4228,6.56853 12.3481,6.58067 12.2737,6.59357 12.1993,6.6072 12.1251,6.62158 12.051,6.63671 11.9771,6.65257 11.9034,6.66917 11.8298,6.6865 11.7564,6.70457 11.6832,6.72338 11.6102,6.74291 11.5374,6.76318 11.4647,6.78417 11.3923,6.80588 11.3202,6.82832 11.2482,6.85148 11.1765,6.87536 11.105,6.89996 11.0338,6.92527 10.9628,6.95128 10.8921,6.97801 10.8217,7.00545 10.7515,7.03358 10.6816,7.06242 10.612,7.09195 10.5428,7.12218 10.4738,7.1531 10.4051,7.18471 10.3368,7.217 10.2688,7.24997 10.2011,7.28363 10.1337,7.31796 10.0667,7.35296 10.0001,7.38862 9.93379,7.42496 9.86787,7.46195 9.80233,7.4996 9.73716,7.53791 9.67238,7.57686 9.60799,7.61646 9.54401,7.6567 9.48042,7.69758 9.41725,7.7391 9.3545,7.78124 9.29217,7.82401 9.23028,7.8674 9.16882,7.91141 9.1078,7.95603 9.04723,8.00125 8.98712,8.04708 8.92747,8.09351 8.86829,8.14054 8.80958,8.18815 8.75135,8.23635 8.6936,8.28512 8.63634,8.33448 8.57959,8.3844 8.52333,8.43489 8.46758,8.48593 8.41234,8.53754 8.35762,8.58969 8.30343,8.64239 8.24977,8.69562 8.19664,8.74939 8.14405,8.80369 8.09201,8.85851 8.04052,8.91385 7.98958,8.96971 7.93921,9.02606 7.8894,9.08292 7.84016,9.14028 7.7915,9.19812 7.74342,9.25645 7.69592,9.31525 7.64902,9.37453 7.60271,9.43428 7.557,9.49448 7.51189,9.55514 7.4674,9.61624 7.42351,9.67779 7.38025,9.73978 7.3376,9.80219 7.29559,9.86502 7.2542,9.92828 7.21345,9.99194 7.17333,10.056 7.13386,10.1205 7.09504,10.1853 7.05686,10.2506 7.01934,10.3162 6.98248,10.3822 6.94628,10.4486 6.91075,10.5153 6.87588,10.5823 6.84169,10.6498 6.80817,10.7175 6.77533,10.7856 6.74318,10.854 6.71171,10.9227 6.68093,10.9918 6.65084,11.0611 6.62145,11.1308 6.59275,11.2007 6.56475,11.2709 6.53746,11.3414 6.51088,11.4122 6.485,11.4832 6.45983,11.5545 6.43538,11.626 6.41165,11.6977 6.38863,11.7697 6.36634,11.842 6.34477,11.9144 6.32392,11.9871 6.3038,12.0599 6.28441,12.133 6.26576,12.2063 6.24783,12.2797 6.23064,12.3533 6.21419,12.4271 6.19848,12.501 6.18351,12.5751 6.16928,12.6494 6.15579,12.7237 6.14305,12.7982 6.13105,12.8729 6.1198,12.9476 6.10929,13.0225 6.09954,13.0974 6.09054,13.1725 6.08228,13.2476 6.07478,13.3228 6.06803,13.3981 6.06204,13.4735 6.0568,13.5489 6.05231,13.6243 6.04858,13.6998 6.0456,13.7754 6.04338,13.8509 6.04191,13.9265 6.0412,14.0021 6.04113,14.0353 " />
</g>
</svg>
